<svg xmlns="http://www.w3.org/2000/svg" xmlns:xlink="http://www.w3.org/1999/xlink" width="1133" zoomAndPan="magnify" viewBox="0 0 850.07996 283.499989" height="377" preserveAspectRatio="xMidYMid meet" version="1.0"><defs><g/><clipPath id="6a30efecde"><path d="M 249 166 L 260 166 L 260 185.628906 L 249 185.628906 Z M 249 166 " clip-rule="nonzero"/></clipPath><clipPath id="0dd604a19e"><path d="M 236 166 L 247 166 L 247 185.628906 L 236 185.628906 Z M 236 166 " clip-rule="nonzero"/></clipPath><clipPath id="800fef83ad"><path d="M 219 97.285156 L 275 97.285156 L 275 136 L 219 136 Z M 219 97.285156 " clip-rule="nonzero"/></clipPath><clipPath id="3f06c14bc9"><path d="M 229 126 L 267 126 L 267 185.628906 L 229 185.628906 Z M 229 126 " clip-rule="nonzero"/></clipPath><clipPath id="9277a53487"><path d="M 270 147 L 292.109375 147 L 292.109375 185.628906 L 270 185.628906 Z M 270 147 " clip-rule="nonzero"/></clipPath><clipPath id="c9a6f9e700"><path d="M 203.765625 147 L 226 147 L 226 185.628906 L 203.765625 185.628906 Z M 203.765625 147 " clip-rule="nonzero"/></clipPath></defs><g clip-path="url(#6a30efecde)"><path fill="#04377b" d="M 249.539062 166.578125 L 259.007812 166.578125 L 259.007812 185.519531 L 249.539062 185.519531 Z M 249.539062 166.578125 " fill-opacity="1" fill-rule="nonzero"/></g><g clip-path="url(#0dd604a19e)"><path fill="#04377b" d="M 236.910156 166.578125 L 246.378906 166.578125 L 246.378906 185.519531 L 236.910156 185.519531 Z M 236.910156 166.578125 " fill-opacity="1" fill-rule="nonzero"/></g><path fill="#04377b" d="M 247.960938 116.070312 C 247.796875 116.066406 247.640625 116.042969 247.484375 115.992188 L 229.019531 110.167969 L 229.019531 122.792969 L 247.960938 128.695312 L 266.898438 122.871094 L 266.898438 110.246094 L 248.433594 116.070312 C 248.273438 116.09375 248.117188 116.09375 247.960938 116.070312 Z M 247.960938 116.070312 " fill-opacity="1" fill-rule="nonzero"/><g clip-path="url(#800fef83ad)"><path fill="#04377b" d="M 224.28125 105.9375 L 247.960938 112.832031 L 274.792969 105.019531 L 247.960938 97.207031 L 221.125 105.019531 L 221.125 126.328125 L 219.546875 127.117188 L 219.546875 135.011719 L 225.863281 135.011719 L 225.863281 127.117188 L 224.28125 126.328125 Z M 224.28125 105.9375 " fill-opacity="1" fill-rule="nonzero"/></g><g clip-path="url(#3f06c14bc9)"><path fill="#04377b" d="M 247.960938 131.855469 C 247.808594 131.878906 247.652344 131.878906 247.5 131.855469 L 229.019531 126.09375 L 229.019531 185.519531 L 233.753906 185.519531 L 233.753906 165 C 233.753906 164.792969 233.792969 164.589844 233.875 164.394531 C 233.953125 164.203125 234.066406 164.03125 234.214844 163.882812 C 234.363281 163.734375 234.535156 163.621094 234.726562 163.542969 C 234.921875 163.460938 235.121094 163.421875 235.332031 163.421875 L 260.585938 163.421875 C 260.796875 163.421875 260.996094 163.460938 261.191406 163.542969 C 261.382812 163.621094 261.554688 163.734375 261.703125 163.882812 C 261.851562 164.03125 261.964844 164.203125 262.042969 164.394531 C 262.125 164.589844 262.164062 164.792969 262.164062 165 L 262.164062 185.519531 L 266.898438 185.519531 L 266.898438 126.09375 L 248.417969 131.855469 C 248.265625 131.878906 248.113281 131.878906 247.960938 131.855469 Z M 244.800781 158.6875 L 235.332031 158.6875 L 235.332031 152.375 L 244.800781 152.375 Z M 244.800781 146.058594 L 235.332031 146.058594 L 235.332031 139.746094 L 244.800781 139.746094 Z M 251.117188 139.746094 L 260.585938 139.746094 L 260.585938 146.058594 L 251.117188 146.058594 Z M 251.117188 152.375 L 260.585938 152.375 L 260.585938 158.6875 L 251.117188 158.6875 Z M 251.117188 152.375 " fill-opacity="1" fill-rule="nonzero"/></g><g clip-path="url(#9277a53487)"><path fill="#04377b" d="M 270.058594 147.636719 L 270.058594 185.519531 L 292.15625 185.519531 L 292.15625 147.636719 Z M 285.839844 171.3125 L 276.371094 171.3125 L 276.371094 165 L 285.839844 165 Z M 285.839844 158.6875 L 276.371094 158.6875 L 276.371094 152.375 L 285.839844 152.375 Z M 285.839844 158.6875 " fill-opacity="1" fill-rule="nonzero"/></g><g clip-path="url(#c9a6f9e700)"><path fill="#04377b" d="M 203.765625 185.519531 L 225.863281 185.519531 L 225.863281 147.636719 L 203.765625 147.636719 Z M 210.078125 152.375 L 219.546875 152.375 L 219.546875 158.6875 L 210.078125 158.6875 Z M 210.078125 165 L 219.546875 165 L 219.546875 171.3125 L 210.078125 171.3125 Z M 210.078125 165 " fill-opacity="1" fill-rule="nonzero"/></g><g fill="#fb0302" fill-opacity="1"><g transform="translate(321.135209, 165.869167)"><g><path d="M 13.585938 -41.28125 C 8.984375 -41.28125 5.347656 -37.570312 5.347656 -32.964844 L 5.347656 -8.242188 C 5.347656 -3.636719 8.984375 0 13.585938 0 L 34.449219 0 C 39.054688 0 42.691406 -3.636719 42.691406 -8.242188 L 42.691406 -12.621094 L 35.488281 -12.621094 L 35.488281 -10.46875 C 35.488281 -8.539062 33.929688 -6.832031 32 -6.832031 L 16.113281 -6.832031 C 14.179688 -6.832031 12.546875 -8.539062 12.546875 -10.46875 L 12.546875 -17.300781 L 42.691406 -17.300781 L 42.691406 -32.964844 C 42.691406 -37.570312 39.054688 -41.28125 34.449219 -41.28125 Z M 12.546875 -23.90625 L 12.546875 -30.738281 C 12.546875 -32.667969 14.179688 -34.375 16.113281 -34.375 L 32 -34.375 C 33.929688 -34.375 35.488281 -32.667969 35.488281 -30.738281 L 35.488281 -23.90625 Z M 12.546875 -23.90625 "/></g></g></g><g fill="#0000ff" fill-opacity="1"><g transform="translate(372.592867, 165.869167)"><g><path d="M 5.347656 -57.765625 L 5.347656 0 L 13.214844 0 L 13.214844 -19.972656 L 36.085938 -19.972656 L 49.226562 0 L 58.730469 0 L 45.585938 -19.972656 L 45.960938 -19.972656 C 50.5625 -19.972656 54.273438 -23.683594 54.273438 -28.289062 L 54.273438 -49.523438 C 54.273438 -54.125 50.5625 -57.765625 45.960938 -57.765625 Z M 13.214844 -27.621094 L 13.214844 -50.191406 L 42.914062 -50.191406 C 44.84375 -50.191406 46.40625 -48.707031 46.40625 -46.777344 L 46.40625 -30.960938 C 46.40625 -29.03125 44.84375 -27.621094 42.914062 -27.621094 Z M 13.214844 -27.621094 "/></g></g></g><g fill="#0000ff" fill-opacity="1"><g transform="translate(435.101719, 165.869167)"><g><path d="M 5.347656 -41.28125 L 5.347656 -8.242188 C 5.347656 -3.636719 8.984375 0 13.585938 0 L 25.390625 0 C 29.550781 0 33.78125 -2.671875 35.488281 -6.980469 L 35.488281 0 L 42.691406 0 L 42.691406 -41.28125 L 35.488281 -41.28125 L 35.488281 -15.296875 C 35.488281 -10.765625 31.925781 -6.832031 27.621094 -6.832031 L 16.113281 -6.832031 C 14.179688 -6.832031 12.546875 -8.539062 12.546875 -10.46875 L 12.546875 -41.28125 Z M 5.347656 -41.28125 "/></g></g></g><g fill="#0000ff" fill-opacity="1"><g transform="translate(486.549136, 165.869167)"><g><path d="M 13.585938 -41.28125 C 9.058594 -41.28125 5.347656 -37.496094 5.347656 -32.964844 L 5.347656 -28.957031 L 12.546875 -28.957031 L 12.546875 -30.738281 C 12.546875 -32.667969 14.179688 -34.375 16.113281 -34.375 L 30.292969 -34.375 C 32.222656 -34.375 33.855469 -32.667969 33.855469 -30.738281 L 33.855469 -24.722656 L 11.953125 -24.722656 C 7.351562 -24.722656 3.710938 -21.085938 3.710938 -16.484375 L 3.710938 -8.242188 C 3.710938 -3.636719 7.351562 0 11.953125 0 L 23.757812 0 C 28.363281 0 32.222656 -2.671875 33.855469 -6.609375 L 33.855469 0 L 41.058594 0 L 41.058594 -32.964844 C 41.058594 -37.570312 37.421875 -41.28125 32.816406 -41.28125 Z M 33.855469 -18.117188 L 33.855469 -14.699219 C 33.855469 -10.394531 30.292969 -6.832031 25.988281 -6.832031 L 14.402344 -6.832031 C 12.472656 -6.832031 10.914062 -8.539062 10.914062 -10.46875 L 10.914062 -14.625 C 10.914062 -16.558594 12.472656 -18.117188 14.402344 -18.117188 Z M 33.855469 -18.117188 "/></g></g></g><g fill="#f9943b" fill-opacity="1"><g transform="translate(536.368679, 165.869167)"><g><path d="M 5.347656 -41.28125 L 5.347656 0 L 12.546875 0 L 12.546875 -26.582031 C 12.546875 -30.886719 16.113281 -34.375 20.417969 -34.375 L 32 -34.375 C 33.929688 -34.375 35.488281 -32.667969 35.488281 -30.738281 L 35.488281 0 L 42.691406 0 L 42.691406 -32.964844 C 42.691406 -37.570312 39.054688 -41.28125 34.449219 -41.28125 L 22.496094 -41.28125 C 18.339844 -41.28125 14.253906 -38.832031 12.546875 -34.746094 L 12.546875 -41.28125 Z M 5.347656 -41.28125 "/></g></g></g><g fill="#f9943b" fill-opacity="1"><g transform="translate(587.816096, 165.869167)"><g><path d="M 13.585938 -41.28125 C 8.984375 -41.28125 5.347656 -37.570312 5.347656 -32.964844 L 5.347656 -8.242188 C 5.347656 -3.636719 8.984375 0 13.585938 0 L 25.390625 0 C 29.550781 0 33.78125 -2.523438 35.488281 -6.609375 L 35.488281 6.015625 C 35.488281 8.09375 33.707031 9.949219 31.628906 9.949219 L 15.445312 9.949219 C 13.363281 9.949219 11.730469 8.09375 11.730469 6.015625 L 11.730469 4.378906 L 5.347656 4.378906 L 5.347656 8.242188 C 5.347656 12.695312 9.132812 16.484375 13.585938 16.484375 L 34.449219 16.484375 C 39.054688 16.484375 42.691406 12.84375 42.691406 8.242188 L 42.691406 -41.28125 L 35.488281 -41.28125 L 35.488281 -34.300781 C 33.855469 -38.386719 29.847656 -41.28125 25.390625 -41.28125 Z M 16.113281 -34.375 L 27.621094 -34.375 C 31.925781 -34.375 35.488281 -30.589844 35.488281 -26.136719 L 35.488281 -14.699219 C 35.488281 -10.394531 31.925781 -6.832031 27.621094 -6.832031 L 16.113281 -6.832031 C 14.179688 -6.832031 12.546875 -8.539062 12.546875 -10.46875 L 12.546875 -30.738281 C 12.546875 -32.667969 14.179688 -34.375 16.113281 -34.375 Z M 16.113281 -34.375 "/></g></g></g></svg>