<svg xmlns="http://www.w3.org/2000/svg" xmlns:xlink="http://www.w3.org/1999/xlink" width="1133" zoomAndPan="magnify" viewBox="0 0 850.07996 283.499989" height="377" preserveAspectRatio="xMidYMid meet" version="1.0"><defs><g/><clipPath id="fe85b1349c"><path d="M 249 122 L 260 122 L 260 141.433594 L 249 141.433594 Z M 249 122 " clip-rule="nonzero"/></clipPath><clipPath id="2f6bdd89b7"><path d="M 236 122 L 247 122 L 247 141.433594 L 236 141.433594 Z M 236 122 " clip-rule="nonzero"/></clipPath><clipPath id="ef36163513"><path d="M 219 53.089844 L 275 53.089844 L 275 91 L 219 91 Z M 219 53.089844 " clip-rule="nonzero"/></clipPath><clipPath id="5bd4c63f2d"><path d="M 229 81 L 267 81 L 267 141.433594 L 229 141.433594 Z M 229 81 " clip-rule="nonzero"/></clipPath><clipPath id="505e7f0944"><path d="M 270 103 L 292.109375 103 L 292.109375 141.433594 L 270 141.433594 Z M 270 103 " clip-rule="nonzero"/></clipPath><clipPath id="c937047da1"><path d="M 203.765625 103 L 226 103 L 226 141.433594 L 203.765625 141.433594 Z M 203.765625 103 " clip-rule="nonzero"/></clipPath></defs><g clip-path="url(#fe85b1349c)"><path fill="#04377b" d="M 249.539062 122.382812 L 259.007812 122.382812 L 259.007812 141.324219 L 249.539062 141.324219 Z M 249.539062 122.382812 " fill-opacity="1" fill-rule="nonzero"/></g><g clip-path="url(#2f6bdd89b7)"><path fill="#04377b" d="M 236.910156 122.382812 L 246.378906 122.382812 L 246.378906 141.324219 L 236.910156 141.324219 Z M 236.910156 122.382812 " fill-opacity="1" fill-rule="nonzero"/></g><path fill="#04377b" d="M 247.960938 71.875 C 247.796875 71.871094 247.640625 71.84375 247.484375 71.792969 L 229.019531 65.96875 L 229.019531 78.597656 L 247.960938 84.5 L 266.898438 78.675781 L 266.898438 66.050781 L 248.433594 71.875 C 248.273438 71.898438 248.117188 71.898438 247.960938 71.875 Z M 247.960938 71.875 " fill-opacity="1" fill-rule="nonzero"/><g clip-path="url(#ef36163513)"><path fill="#04377b" d="M 224.28125 61.738281 L 247.960938 68.636719 L 274.792969 60.824219 L 247.960938 53.011719 L 221.125 60.824219 L 221.125 82.132812 L 219.546875 82.921875 L 219.546875 90.816406 L 225.863281 90.816406 L 225.863281 82.921875 L 224.28125 82.132812 Z M 224.28125 61.738281 " fill-opacity="1" fill-rule="nonzero"/></g><g clip-path="url(#5bd4c63f2d)"><path fill="#04377b" d="M 247.960938 87.65625 C 247.808594 87.683594 247.652344 87.683594 247.5 87.65625 L 229.019531 81.894531 L 229.019531 141.324219 L 233.753906 141.324219 L 233.753906 120.804688 C 233.753906 120.59375 233.792969 120.394531 233.875 120.199219 C 233.953125 120.007812 234.066406 119.835938 234.214844 119.6875 C 234.363281 119.539062 234.535156 119.425781 234.726562 119.347656 C 234.921875 119.265625 235.121094 119.226562 235.332031 119.226562 L 260.585938 119.226562 C 260.796875 119.226562 260.996094 119.265625 261.191406 119.347656 C 261.382812 119.425781 261.554688 119.539062 261.703125 119.6875 C 261.851562 119.835938 261.964844 120.007812 262.042969 120.199219 C 262.125 120.394531 262.164062 120.59375 262.164062 120.804688 L 262.164062 141.324219 L 266.898438 141.324219 L 266.898438 81.894531 L 248.417969 87.65625 C 248.265625 87.683594 248.113281 87.683594 247.960938 87.65625 Z M 244.800781 114.492188 L 235.332031 114.492188 L 235.332031 108.175781 L 244.800781 108.175781 Z M 244.800781 101.863281 L 235.332031 101.863281 L 235.332031 95.550781 L 244.800781 95.550781 Z M 251.117188 95.550781 L 260.585938 95.550781 L 260.585938 101.863281 L 251.117188 101.863281 Z M 251.117188 108.175781 L 260.585938 108.175781 L 260.585938 114.492188 L 251.117188 114.492188 Z M 251.117188 108.175781 " fill-opacity="1" fill-rule="nonzero"/></g><g clip-path="url(#505e7f0944)"><path fill="#04377b" d="M 270.058594 103.441406 L 270.058594 141.324219 L 292.15625 141.324219 L 292.15625 103.441406 Z M 285.839844 127.117188 L 276.371094 127.117188 L 276.371094 120.804688 L 285.839844 120.804688 Z M 285.839844 114.492188 L 276.371094 114.492188 L 276.371094 108.175781 L 285.839844 108.175781 Z M 285.839844 114.492188 " fill-opacity="1" fill-rule="nonzero"/></g><g clip-path="url(#c937047da1)"><path fill="#04377b" d="M 203.765625 141.324219 L 225.863281 141.324219 L 225.863281 103.441406 L 203.765625 103.441406 Z M 210.078125 108.175781 L 219.546875 108.175781 L 219.546875 114.492188 L 210.078125 114.492188 Z M 210.078125 120.804688 L 219.546875 120.804688 L 219.546875 127.117188 L 210.078125 127.117188 Z M 210.078125 120.804688 " fill-opacity="1" fill-rule="nonzero"/></g><g fill="#fb0302" fill-opacity="1"><g transform="translate(321.135209, 121.67301)"><g><path d="M 13.585938 -41.28125 C 8.984375 -41.28125 5.347656 -37.570312 5.347656 -32.964844 L 5.347656 -8.242188 C 5.347656 -3.636719 8.984375 0 13.585938 0 L 34.449219 0 C 39.054688 0 42.691406 -3.636719 42.691406 -8.242188 L 42.691406 -12.621094 L 35.488281 -12.621094 L 35.488281 -10.46875 C 35.488281 -8.539062 33.929688 -6.832031 32 -6.832031 L 16.113281 -6.832031 C 14.179688 -6.832031 12.546875 -8.539062 12.546875 -10.46875 L 12.546875 -17.300781 L 42.691406 -17.300781 L 42.691406 -32.964844 C 42.691406 -37.570312 39.054688 -41.28125 34.449219 -41.28125 Z M 12.546875 -23.90625 L 12.546875 -30.738281 C 12.546875 -32.667969 14.179688 -34.375 16.113281 -34.375 L 32 -34.375 C 33.929688 -34.375 35.488281 -32.667969 35.488281 -30.738281 L 35.488281 -23.90625 Z M 12.546875 -23.90625 "/></g></g></g><g fill="#0000ff" fill-opacity="1"><g transform="translate(372.592867, 121.67301)"><g><path d="M 5.347656 -57.765625 L 5.347656 0 L 13.214844 0 L 13.214844 -19.972656 L 36.085938 -19.972656 L 49.226562 0 L 58.730469 0 L 45.585938 -19.972656 L 45.960938 -19.972656 C 50.5625 -19.972656 54.273438 -23.683594 54.273438 -28.289062 L 54.273438 -49.523438 C 54.273438 -54.125 50.5625 -57.765625 45.960938 -57.765625 Z M 13.214844 -27.621094 L 13.214844 -50.191406 L 42.914062 -50.191406 C 44.84375 -50.191406 46.40625 -48.707031 46.40625 -46.777344 L 46.40625 -30.960938 C 46.40625 -29.03125 44.84375 -27.621094 42.914062 -27.621094 Z M 13.214844 -27.621094 "/></g></g></g><g fill="#0000ff" fill-opacity="1"><g transform="translate(435.101719, 121.67301)"><g><path d="M 5.347656 -41.28125 L 5.347656 -8.242188 C 5.347656 -3.636719 8.984375 0 13.585938 0 L 25.390625 0 C 29.550781 0 33.78125 -2.671875 35.488281 -6.980469 L 35.488281 0 L 42.691406 0 L 42.691406 -41.28125 L 35.488281 -41.28125 L 35.488281 -15.296875 C 35.488281 -10.765625 31.925781 -6.832031 27.621094 -6.832031 L 16.113281 -6.832031 C 14.179688 -6.832031 12.546875 -8.539062 12.546875 -10.46875 L 12.546875 -41.28125 Z M 5.347656 -41.28125 "/></g></g></g><g fill="#0000ff" fill-opacity="1"><g transform="translate(486.549136, 121.67301)"><g><path d="M 13.585938 -41.28125 C 9.058594 -41.28125 5.347656 -37.496094 5.347656 -32.964844 L 5.347656 -28.957031 L 12.546875 -28.957031 L 12.546875 -30.738281 C 12.546875 -32.667969 14.179688 -34.375 16.113281 -34.375 L 30.292969 -34.375 C 32.222656 -34.375 33.855469 -32.667969 33.855469 -30.738281 L 33.855469 -24.722656 L 11.953125 -24.722656 C 7.351562 -24.722656 3.710938 -21.085938 3.710938 -16.484375 L 3.710938 -8.242188 C 3.710938 -3.636719 7.351562 0 11.953125 0 L 23.757812 0 C 28.363281 0 32.222656 -2.671875 33.855469 -6.609375 L 33.855469 0 L 41.058594 0 L 41.058594 -32.964844 C 41.058594 -37.570312 37.421875 -41.28125 32.816406 -41.28125 Z M 33.855469 -18.117188 L 33.855469 -14.699219 C 33.855469 -10.394531 30.292969 -6.832031 25.988281 -6.832031 L 14.402344 -6.832031 C 12.472656 -6.832031 10.914062 -8.539062 10.914062 -10.46875 L 10.914062 -14.625 C 10.914062 -16.558594 12.472656 -18.117188 14.402344 -18.117188 Z M 33.855469 -18.117188 "/></g></g></g><g fill="#f9943b" fill-opacity="1"><g transform="translate(536.368679, 121.67301)"><g><path d="M 5.347656 -41.28125 L 5.347656 0 L 12.546875 0 L 12.546875 -26.582031 C 12.546875 -30.886719 16.113281 -34.375 20.417969 -34.375 L 32 -34.375 C 33.929688 -34.375 35.488281 -32.667969 35.488281 -30.738281 L 35.488281 0 L 42.691406 0 L 42.691406 -32.964844 C 42.691406 -37.570312 39.054688 -41.28125 34.449219 -41.28125 L 22.496094 -41.28125 C 18.339844 -41.28125 14.253906 -38.832031 12.546875 -34.746094 L 12.546875 -41.28125 Z M 5.347656 -41.28125 "/></g></g></g><g fill="#f9943b" fill-opacity="1"><g transform="translate(587.816096, 121.67301)"><g><path d="M 13.585938 -41.28125 C 8.984375 -41.28125 5.347656 -37.570312 5.347656 -32.964844 L 5.347656 -8.242188 C 5.347656 -3.636719 8.984375 0 13.585938 0 L 25.390625 0 C 29.550781 0 33.78125 -2.523438 35.488281 -6.609375 L 35.488281 6.015625 C 35.488281 8.09375 33.707031 9.949219 31.628906 9.949219 L 15.445312 9.949219 C 13.363281 9.949219 11.730469 8.09375 11.730469 6.015625 L 11.730469 4.378906 L 5.347656 4.378906 L 5.347656 8.242188 C 5.347656 12.695312 9.132812 16.484375 13.585938 16.484375 L 34.449219 16.484375 C 39.054688 16.484375 42.691406 12.84375 42.691406 8.242188 L 42.691406 -41.28125 L 35.488281 -41.28125 L 35.488281 -34.300781 C 33.855469 -38.386719 29.847656 -41.28125 25.390625 -41.28125 Z M 16.113281 -34.375 L 27.621094 -34.375 C 31.925781 -34.375 35.488281 -30.589844 35.488281 -26.136719 L 35.488281 -14.699219 C 35.488281 -10.394531 31.925781 -6.832031 27.621094 -6.832031 L 16.113281 -6.832031 C 14.179688 -6.832031 12.546875 -8.539062 12.546875 -10.46875 L 12.546875 -30.738281 C 12.546875 -32.667969 14.179688 -34.375 16.113281 -34.375 Z M 16.113281 -34.375 "/></g></g></g><g fill="#00ffff" fill-opacity="1"><g transform="translate(144.820893, 176.92417)"><g><path d="M 5.480469 -23.300781 C 3.625 -23.300781 2.15625 -21.832031 2.15625 -19.976562 L 2.15625 -13.445312 C 2.15625 -11.589844 3.625 -10.121094 5.480469 -10.121094 L 14.554688 -10.121094 C 15.332031 -10.121094 15.960938 -9.492188 15.960938 -8.714844 L 15.960938 -4.433594 C 15.960938 -3.652344 15.332031 -3.054688 14.554688 -3.054688 L 2.816406 -3.054688 L 2.816406 0 L 15.8125 0 C 17.667969 0 19.136719 -1.46875 19.136719 -3.324219 L 19.136719 -9.851562 C 19.136719 -11.710938 17.667969 -13.175781 15.8125 -13.175781 L 6.738281 -13.175781 C 5.960938 -13.175781 5.332031 -13.804688 5.332031 -14.585938 L 5.332031 -18.867188 C 5.332031 -19.644531 5.960938 -20.246094 6.738281 -20.246094 L 18.476562 -20.246094 L 18.476562 -23.300781 Z M 5.480469 -23.300781 "/></g></g></g><g fill="#00ffff" fill-opacity="1"><g transform="translate(166.113317, 176.92417)"><g><path d="M 2.125 -16.652344 L 2.125 0 L 5.03125 0 L 5.03125 -16.652344 Z M 1.917969 -23.300781 L 1.917969 -20.574219 L 5.269531 -20.574219 L 5.269531 -23.300781 Z M 1.917969 -23.300781 "/></g></g></g><g fill="#00ffff" fill-opacity="1"><g transform="translate(173.300633, 176.92417)"><g><path d="M 5.480469 -16.652344 C 3.625 -16.652344 2.15625 -15.152344 2.15625 -13.296875 L 2.15625 -10.300781 C 2.15625 -8.445312 3.625 -6.976562 5.480469 -6.976562 L 10.902344 -6.976562 C 11.679688 -6.976562 12.308594 -6.347656 12.308594 -5.570312 L 12.308594 -4.222656 C 12.308594 -3.445312 11.679688 -2.753906 10.902344 -2.753906 L 6.5 -2.753906 C 5.71875 -2.753906 5.0625 -3.445312 5.0625 -4.222656 L 5.0625 -5 L 2.15625 -5 L 2.15625 -3.324219 C 2.15625 -1.527344 3.683594 0 5.480469 0 L 11.890625 0 C 13.746094 0 15.214844 -1.46875 15.214844 -3.324219 L 15.214844 -6.078125 C 15.214844 -8.054688 13.746094 -9.644531 11.890625 -9.644531 L 6.5 -9.644531 C 5.71875 -9.644531 5.0625 -10.273438 5.0625 -11.050781 L 5.0625 -12.398438 C 5.0625 -13.175781 5.71875 -13.867188 6.5 -13.867188 L 10.902344 -13.867188 C 11.679688 -13.867188 12.308594 -13.175781 12.308594 -12.398438 L 12.308594 -11.621094 L 15.214844 -11.621094 L 15.214844 -13.296875 C 15.214844 -15.09375 13.6875 -16.652344 11.890625 -16.652344 Z M 5.480469 -16.652344 "/></g></g></g><g fill="#00ffff" fill-opacity="1"><g transform="translate(190.669985, 176.92417)"><g><path d="M 2.425781 -22.699219 L 2.425781 -3.324219 C 2.425781 -1.46875 3.894531 0 5.75 0 L 9.492188 0 L 9.492188 -2.753906 L 6.738281 -2.753906 C 5.960938 -2.753906 5.332031 -3.445312 5.332031 -4.222656 L 5.332031 -13.867188 L 9.492188 -13.867188 L 9.492188 -16.652344 L 5.332031 -16.652344 L 5.332031 -22.699219 Z M 2.425781 -22.699219 "/></g></g></g><g fill="#00ffff" fill-opacity="1"><g transform="translate(200.582494, 176.92417)"><g><path d="M 5.480469 -16.652344 C 3.625 -16.652344 2.15625 -15.152344 2.15625 -13.296875 L 2.15625 -3.324219 C 2.15625 -1.46875 3.625 0 5.480469 0 L 11.890625 0 C 13.746094 0 15.214844 -1.46875 15.214844 -3.324219 L 15.214844 -5.300781 L 12.308594 -5.300781 L 12.308594 -4.222656 C 12.308594 -3.445312 11.679688 -2.753906 10.902344 -2.753906 L 6.5 -2.753906 C 5.71875 -2.753906 5.0625 -3.445312 5.0625 -4.222656 L 5.0625 -6.976562 L 15.214844 -6.976562 L 15.214844 -13.296875 C 15.214844 -15.152344 13.746094 -16.652344 11.890625 -16.652344 Z M 5.0625 -9.644531 L 5.0625 -12.398438 C 5.0625 -13.175781 5.71875 -13.867188 6.5 -13.867188 L 10.902344 -13.867188 C 11.679688 -13.867188 12.308594 -13.175781 12.308594 -12.398438 L 12.308594 -9.644531 Z M 5.0625 -9.644531 "/></g></g></g><g fill="#00ffff" fill-opacity="1"><g transform="translate(217.951845, 176.92417)"><g><path d="M 2.15625 -16.652344 L 2.15625 0 L 5.0625 0 L 5.0625 -10.242188 C 5.0625 -12.21875 6.5 -13.867188 8.234375 -13.867188 L 9.253906 -13.867188 C 10.03125 -13.867188 10.722656 -13.175781 10.722656 -12.398438 L 10.722656 0 L 13.566406 0 L 13.566406 -10.722656 C 13.566406 -12.457031 15.003906 -13.867188 16.742188 -13.867188 L 17.789062 -13.867188 C 18.566406 -13.867188 19.226562 -13.175781 19.226562 -12.398438 L 19.226562 0 L 22.132812 0 L 22.132812 -13.296875 C 22.132812 -15.152344 20.664062 -16.652344 18.808594 -16.652344 L 17.550781 -16.652344 C 15.78125 -16.652344 14.195312 -15.542969 13.507812 -13.984375 C 13.175781 -15.542969 11.769531 -16.652344 10.152344 -16.652344 L 8.984375 -16.652344 C 7.308594 -16.652344 5.71875 -15.511719 5.0625 -13.714844 L 5.0625 -16.652344 Z M 2.15625 -16.652344 "/></g></g></g><g fill="#00ffff" fill-opacity="1"><g transform="translate(242.238988, 176.92417)"><g/></g></g><g fill="#00ffff" fill-opacity="1"><g transform="translate(251.133293, 176.92417)"><g><path d="M 2.15625 -23.300781 L 2.15625 0 L 5.332031 0 L 5.332031 -6.648438 L 15.8125 -6.648438 C 17.667969 -6.648438 19.136719 -8.117188 19.136719 -9.972656 L 19.136719 -19.976562 C 19.136719 -21.832031 17.667969 -23.300781 15.8125 -23.300781 Z M 5.332031 -9.703125 L 5.332031 -20.246094 L 14.554688 -20.246094 C 15.332031 -20.246094 15.960938 -19.644531 15.960938 -18.867188 L 15.960938 -11.082031 C 15.960938 -10.300781 15.332031 -9.703125 14.554688 -9.703125 Z M 5.332031 -9.703125 "/></g></g></g><g fill="#00ffff" fill-opacity="1"><g transform="translate(272.425717, 176.92417)"><g><path d="M 5.480469 -16.652344 C 3.625 -16.652344 2.15625 -15.152344 2.15625 -13.296875 L 2.15625 -3.324219 C 2.15625 -1.46875 3.625 0 5.480469 0 L 11.890625 0 C 13.746094 0 15.214844 -1.46875 15.214844 -3.324219 L 15.214844 -5.300781 L 12.308594 -5.300781 L 12.308594 -4.222656 C 12.308594 -3.445312 11.679688 -2.753906 10.902344 -2.753906 L 6.5 -2.753906 C 5.71875 -2.753906 5.0625 -3.445312 5.0625 -4.222656 L 5.0625 -6.976562 L 15.214844 -6.976562 L 15.214844 -13.296875 C 15.214844 -15.152344 13.746094 -16.652344 11.890625 -16.652344 Z M 5.0625 -9.644531 L 5.0625 -12.398438 C 5.0625 -13.175781 5.71875 -13.867188 6.5 -13.867188 L 10.902344 -13.867188 C 11.679688 -13.867188 12.308594 -13.175781 12.308594 -12.398438 L 12.308594 -9.644531 Z M 5.0625 -9.644531 "/></g></g></g><g fill="#00ffff" fill-opacity="1"><g transform="translate(289.795069, 176.92417)"><g><path d="M 2.15625 -16.652344 L 2.15625 0 L 5.0625 0 L 5.0625 -10.242188 C 5.0625 -12.21875 6.5 -13.867188 8.234375 -13.867188 L 9.253906 -13.867188 C 10.03125 -13.867188 10.722656 -13.175781 10.722656 -12.398438 L 10.722656 0 L 13.566406 0 L 13.566406 -10.722656 C 13.566406 -12.457031 15.003906 -13.867188 16.742188 -13.867188 L 17.789062 -13.867188 C 18.566406 -13.867188 19.226562 -13.175781 19.226562 -12.398438 L 19.226562 0 L 22.132812 0 L 22.132812 -13.296875 C 22.132812 -15.152344 20.664062 -16.652344 18.808594 -16.652344 L 17.550781 -16.652344 C 15.78125 -16.652344 14.195312 -15.542969 13.507812 -13.984375 C 13.175781 -15.542969 11.769531 -16.652344 10.152344 -16.652344 L 8.984375 -16.652344 C 7.308594 -16.652344 5.71875 -15.511719 5.0625 -13.714844 L 5.0625 -16.652344 Z M 2.15625 -16.652344 "/></g></g></g><g fill="#00ffff" fill-opacity="1"><g transform="translate(314.082211, 176.92417)"><g><path d="M 2.125 -16.652344 L 2.125 0 L 5.03125 0 L 5.03125 -16.652344 Z M 1.917969 -23.300781 L 1.917969 -20.574219 L 5.269531 -20.574219 L 5.269531 -23.300781 Z M 1.917969 -23.300781 "/></g></g></g><g fill="#00ffff" fill-opacity="1"><g transform="translate(321.269528, 176.92417)"><g><path d="M 2.15625 -16.652344 L 2.15625 0 L 5.0625 0 L 5.0625 -10.722656 C 5.0625 -12.457031 6.5 -13.867188 8.234375 -13.867188 L 10.902344 -13.867188 C 11.679688 -13.867188 12.308594 -13.175781 12.308594 -12.398438 L 12.308594 0 L 15.214844 0 L 15.214844 -13.296875 C 15.214844 -15.152344 13.746094 -16.652344 11.890625 -16.652344 L 9.074219 -16.652344 C 7.398438 -16.652344 5.75 -15.664062 5.0625 -14.015625 L 5.0625 -16.652344 Z M 2.15625 -16.652344 "/></g></g></g><g fill="#00ffff" fill-opacity="1"><g transform="translate(338.638867, 176.92417)"><g><path d="M 2.15625 -16.652344 L 2.15625 2.425781 C 2.15625 3.203125 1.527344 3.894531 0.75 3.894531 L -2.007812 3.894531 L -2.007812 6.648438 L 1.738281 6.648438 C 3.59375 6.648438 5.0625 5.179688 5.0625 3.324219 L 5.0625 -16.652344 Z M 1.976562 -23.300781 L 1.976562 -20.574219 L 5.300781 -20.574219 L 5.300781 -23.300781 Z M 1.976562 -23.300781 "/></g></g></g><g fill="#00ffff" fill-opacity="1"><g transform="translate(345.826172, 176.92417)"><g><path d="M 5.480469 -16.652344 C 3.652344 -16.652344 2.15625 -15.125 2.15625 -13.296875 L 2.15625 -11.828125 L 5.0625 -11.828125 L 5.0625 -12.398438 C 5.0625 -13.175781 5.71875 -13.867188 6.5 -13.867188 L 10.242188 -13.867188 C 11.019531 -13.867188 11.648438 -13.175781 11.648438 -12.398438 L 11.648438 -9.972656 L 4.820312 -9.972656 C 2.964844 -9.972656 1.496094 -8.503906 1.496094 -6.648438 L 1.496094 -3.324219 C 1.496094 -1.46875 2.964844 0 4.820312 0 L 7.578125 0 C 9.433594 0 10.992188 -1.078125 11.648438 -2.664062 L 11.648438 0 L 14.554688 0 L 14.554688 -13.296875 C 14.554688 -15.152344 13.085938 -16.652344 11.230469 -16.652344 Z M 11.648438 -7.308594 L 11.648438 -5.929688 C 11.648438 -4.191406 10.210938 -2.753906 8.476562 -2.753906 L 5.808594 -2.753906 C 5.03125 -2.753906 4.402344 -3.445312 4.402344 -4.222656 L 4.402344 -5.898438 C 4.402344 -6.679688 5.03125 -7.308594 5.808594 -7.308594 Z M 11.648438 -7.308594 "/></g></g></g><g fill="#00ffff" fill-opacity="1"><g transform="translate(362.506728, 176.92417)"><g><path d="M 2.15625 -16.652344 L 2.15625 0 L 5.0625 0 L 5.0625 -10.242188 C 5.0625 -12.21875 6.5 -13.867188 8.234375 -13.867188 L 9.253906 -13.867188 C 10.03125 -13.867188 10.722656 -13.175781 10.722656 -12.398438 L 10.722656 0 L 13.566406 0 L 13.566406 -10.722656 C 13.566406 -12.457031 15.003906 -13.867188 16.742188 -13.867188 L 17.789062 -13.867188 C 18.566406 -13.867188 19.226562 -13.175781 19.226562 -12.398438 L 19.226562 0 L 22.132812 0 L 22.132812 -13.296875 C 22.132812 -15.152344 20.664062 -16.652344 18.808594 -16.652344 L 17.550781 -16.652344 C 15.78125 -16.652344 14.195312 -15.542969 13.507812 -13.984375 C 13.175781 -15.542969 11.769531 -16.652344 10.152344 -16.652344 L 8.984375 -16.652344 C 7.308594 -16.652344 5.71875 -15.511719 5.0625 -13.714844 L 5.0625 -16.652344 Z M 2.15625 -16.652344 "/></g></g></g><g fill="#00ffff" fill-opacity="1"><g transform="translate(386.79387, 176.92417)"><g><path d="M 5.480469 -16.652344 C 3.652344 -16.652344 2.15625 -15.125 2.15625 -13.296875 L 2.15625 -11.828125 L 5.0625 -11.828125 L 5.0625 -12.398438 C 5.0625 -13.175781 5.71875 -13.867188 6.5 -13.867188 L 10.242188 -13.867188 C 11.019531 -13.867188 11.648438 -13.175781 11.648438 -12.398438 L 11.648438 -9.972656 L 4.820312 -9.972656 C 2.964844 -9.972656 1.496094 -8.503906 1.496094 -6.648438 L 1.496094 -3.324219 C 1.496094 -1.46875 2.964844 0 4.820312 0 L 7.578125 0 C 9.433594 0 10.992188 -1.078125 11.648438 -2.664062 L 11.648438 0 L 14.554688 0 L 14.554688 -13.296875 C 14.554688 -15.152344 13.085938 -16.652344 11.230469 -16.652344 Z M 11.648438 -7.308594 L 11.648438 -5.929688 C 11.648438 -4.191406 10.210938 -2.753906 8.476562 -2.753906 L 5.808594 -2.753906 C 5.03125 -2.753906 4.402344 -3.445312 4.402344 -4.222656 L 4.402344 -5.898438 C 4.402344 -6.679688 5.03125 -7.308594 5.808594 -7.308594 Z M 11.648438 -7.308594 "/></g></g><g transform="translate(403.474451, 176.92417)"><g><path d="M 2.15625 -16.652344 L 2.15625 0 L 5.0625 0 L 5.0625 -10.722656 C 5.0625 -12.457031 6.5 -13.867188 8.234375 -13.867188 L 10.902344 -13.867188 C 11.679688 -13.867188 12.308594 -13.175781 12.308594 -12.398438 L 12.308594 0 L 15.214844 0 L 15.214844 -13.296875 C 15.214844 -15.152344 13.746094 -16.652344 11.890625 -16.652344 L 9.074219 -16.652344 C 7.398438 -16.652344 5.75 -15.664062 5.0625 -14.015625 L 5.0625 -16.652344 Z M 2.15625 -16.652344 "/></g></g></g><g fill="#00ffff" fill-opacity="1"><g transform="translate(420.8438, 176.92417)"><g/></g></g><g fill="#00ffff" fill-opacity="1"><g transform="translate(429.738093, 176.92417)"><g><path d="M 2.15625 -23.300781 L 2.15625 0 L 5.332031 0 L 5.332031 -8.054688 L 11.800781 -8.054688 L 17.101562 0 L 20.933594 0 L 15.664062 -8.054688 L 15.8125 -8.054688 C 17.667969 -8.054688 19.136719 -9.554688 19.136719 -11.410156 L 19.136719 -19.976562 C 19.136719 -21.832031 17.667969 -23.300781 15.8125 -23.300781 Z M 5.332031 -11.140625 L 5.332031 -20.246094 L 14.554688 -20.246094 C 15.332031 -20.246094 15.960938 -19.644531 15.960938 -18.867188 L 15.960938 -12.488281 C 15.960938 -11.710938 15.332031 -11.140625 14.554688 -11.140625 Z M 5.332031 -11.140625 "/></g></g></g><g fill="#00ffff" fill-opacity="1"><g transform="translate(450.820888, 176.92417)"><g><path d="M 2.15625 -16.652344 L 2.15625 -3.324219 C 2.15625 -1.46875 3.625 0 5.480469 0 L 8.265625 0 C 9.941406 0 11.621094 -1.078125 12.308594 -2.816406 L 12.308594 0 L 15.214844 0 L 15.214844 -16.652344 L 12.308594 -16.652344 L 12.308594 -6.167969 C 12.308594 -4.34375 10.902344 -2.753906 9.164062 -2.753906 L 6.5 -2.753906 C 5.71875 -2.753906 5.0625 -3.445312 5.0625 -4.222656 L 5.0625 -16.652344 Z M 2.15625 -16.652344 "/></g></g></g><g fill="#00ffff" fill-opacity="1"><g transform="translate(468.190239, 176.92417)"><g><path d="M 5.480469 -16.652344 C 3.652344 -16.652344 2.15625 -15.125 2.15625 -13.296875 L 2.15625 -11.828125 L 5.0625 -11.828125 L 5.0625 -12.398438 C 5.0625 -13.175781 5.71875 -13.867188 6.5 -13.867188 L 10.242188 -13.867188 C 11.019531 -13.867188 11.648438 -13.175781 11.648438 -12.398438 L 11.648438 -9.972656 L 4.820312 -9.972656 C 2.964844 -9.972656 1.496094 -8.503906 1.496094 -6.648438 L 1.496094 -3.324219 C 1.496094 -1.46875 2.964844 0 4.820312 0 L 7.578125 0 C 9.433594 0 10.992188 -1.078125 11.648438 -2.664062 L 11.648438 0 L 14.554688 0 L 14.554688 -13.296875 C 14.554688 -15.152344 13.085938 -16.652344 11.230469 -16.652344 Z M 11.648438 -7.308594 L 11.648438 -5.929688 C 11.648438 -4.191406 10.210938 -2.753906 8.476562 -2.753906 L 5.808594 -2.753906 C 5.03125 -2.753906 4.402344 -3.445312 4.402344 -4.222656 L 4.402344 -5.898438 C 4.402344 -6.679688 5.03125 -7.308594 5.808594 -7.308594 Z M 11.648438 -7.308594 "/></g></g><g transform="translate(484.87082, 176.92417)"><g><path d="M 2.15625 -16.652344 L 2.15625 0 L 5.0625 0 L 5.0625 -10.722656 C 5.0625 -12.457031 6.5 -13.867188 8.234375 -13.867188 L 10.902344 -13.867188 C 11.679688 -13.867188 12.308594 -13.175781 12.308594 -12.398438 L 12.308594 0 L 15.214844 0 L 15.214844 -13.296875 C 15.214844 -15.152344 13.746094 -16.652344 11.890625 -16.652344 L 9.074219 -16.652344 C 7.398438 -16.652344 5.75 -15.664062 5.0625 -14.015625 L 5.0625 -16.652344 Z M 2.15625 -16.652344 "/></g></g></g><g fill="#00ffff" fill-opacity="1"><g transform="translate(502.240169, 176.92417)"><g><path d="M 5.480469 -16.652344 C 3.625 -16.652344 2.15625 -15.152344 2.15625 -13.296875 L 2.15625 -3.324219 C 2.15625 -1.46875 3.625 0 5.480469 0 L 8.265625 0 C 9.941406 0 11.621094 -1.019531 12.308594 -2.664062 L 12.308594 2.425781 C 12.308594 3.503906 11.46875 4.402344 10.390625 4.402344 L 6.589844 4.402344 C 5.511719 4.402344 4.730469 3.503906 4.730469 2.425781 L 4.730469 2.15625 L 2.15625 2.15625 L 2.15625 3.324219 C 2.15625 5.121094 3.683594 6.648438 5.480469 6.648438 L 11.890625 6.648438 C 13.746094 6.648438 15.214844 5.179688 15.214844 3.324219 L 15.214844 -16.652344 L 12.308594 -16.652344 L 12.308594 -13.925781 C 11.648438 -15.511719 10.0625 -16.652344 8.265625 -16.652344 Z M 6.5 -13.867188 L 9.164062 -13.867188 C 10.902344 -13.867188 12.308594 -12.457031 12.308594 -10.722656 L 12.308594 -5.929688 C 12.308594 -4.191406 10.902344 -2.753906 9.164062 -2.753906 L 6.5 -2.753906 C 5.71875 -2.753906 5.0625 -3.445312 5.0625 -4.222656 L 5.0625 -12.398438 C 5.0625 -13.175781 5.71875 -13.867188 6.5 -13.867188 Z M 6.5 -13.867188 "/></g></g></g><g fill="#00ffff" fill-opacity="1"><g transform="translate(519.60952, 176.92417)"><g><path d="M 5.480469 -16.652344 C 3.652344 -16.652344 2.15625 -15.125 2.15625 -13.296875 L 2.15625 -11.828125 L 5.0625 -11.828125 L 5.0625 -12.398438 C 5.0625 -13.175781 5.71875 -13.867188 6.5 -13.867188 L 10.242188 -13.867188 C 11.019531 -13.867188 11.648438 -13.175781 11.648438 -12.398438 L 11.648438 -9.972656 L 4.820312 -9.972656 C 2.964844 -9.972656 1.496094 -8.503906 1.496094 -6.648438 L 1.496094 -3.324219 C 1.496094 -1.46875 2.964844 0 4.820312 0 L 7.578125 0 C 9.433594 0 10.992188 -1.078125 11.648438 -2.664062 L 11.648438 0 L 14.554688 0 L 14.554688 -13.296875 C 14.554688 -15.152344 13.085938 -16.652344 11.230469 -16.652344 Z M 11.648438 -7.308594 L 11.648438 -5.929688 C 11.648438 -4.191406 10.210938 -2.753906 8.476562 -2.753906 L 5.808594 -2.753906 C 5.03125 -2.753906 4.402344 -3.445312 4.402344 -4.222656 L 4.402344 -5.898438 C 4.402344 -6.679688 5.03125 -7.308594 5.808594 -7.308594 Z M 11.648438 -7.308594 "/></g></g></g><g fill="#00ffff" fill-opacity="1"><g transform="translate(536.290076, 176.92417)"><g><path d="M 2.15625 -16.652344 L 2.15625 0 L 5.0625 0 L 5.0625 -10.722656 C 5.0625 -12.457031 6.5 -13.867188 8.234375 -13.867188 L 10.902344 -13.867188 C 11.679688 -13.867188 12.308594 -13.175781 12.308594 -12.398438 L 12.308594 0 L 15.214844 0 L 15.214844 -13.296875 C 15.214844 -15.152344 13.746094 -16.652344 11.890625 -16.652344 L 9.074219 -16.652344 C 7.398438 -16.652344 5.75 -15.664062 5.0625 -14.015625 L 5.0625 -16.652344 Z M 2.15625 -16.652344 "/></g></g></g><g fill="#00ffff" fill-opacity="1"><g transform="translate(553.659404, 176.92417)"><g/></g></g><g fill="#00ffff" fill-opacity="1"><g transform="translate(562.55372, 176.92417)"><g><path d="M 2.15625 -23.300781 L 2.15625 0 L 5.332031 0 L 5.332031 -17.730469 L 15.960938 0 L 19.136719 0 L 19.136719 -23.300781 L 15.960938 -23.300781 L 15.960938 -5.570312 L 5.332031 -23.300781 Z M 2.15625 -23.300781 "/></g></g></g><g fill="#00ffff" fill-opacity="1"><g transform="translate(583.846121, 176.92417)"><g><path d="M 2.15625 -16.652344 L 2.15625 -3.324219 C 2.15625 -1.46875 3.625 0 5.480469 0 L 8.265625 0 C 9.941406 0 11.621094 -1.078125 12.308594 -2.816406 L 12.308594 0 L 15.214844 0 L 15.214844 -16.652344 L 12.308594 -16.652344 L 12.308594 -6.167969 C 12.308594 -4.34375 10.902344 -2.753906 9.164062 -2.753906 L 6.5 -2.753906 C 5.71875 -2.753906 5.0625 -3.445312 5.0625 -4.222656 L 5.0625 -16.652344 Z M 2.15625 -16.652344 "/></g></g></g><g fill="#00ffff" fill-opacity="1"><g transform="translate(601.215449, 176.92417)"><g><path d="M 2.15625 -16.652344 L 2.15625 0 L 5.0625 0 L 5.0625 -10.722656 C 5.0625 -12.457031 6.5 -13.867188 8.234375 -13.867188 L 10.570312 -13.867188 L 10.570312 -16.652344 L 9.132812 -16.652344 C 7.457031 -16.652344 5.75 -15.632812 5.0625 -13.984375 L 5.0625 -16.652344 Z M 2.15625 -16.652344 "/></g></g></g><g fill="#00ffff" fill-opacity="1"><g transform="translate(612.056314, 176.92417)"><g><path d="M 2.15625 -16.652344 L 2.15625 -3.324219 C 2.15625 -1.46875 3.625 0 5.480469 0 L 8.265625 0 C 9.941406 0 11.621094 -1.078125 12.308594 -2.816406 L 12.308594 0 L 15.214844 0 L 15.214844 -16.652344 L 12.308594 -16.652344 L 12.308594 -6.167969 C 12.308594 -4.34375 10.902344 -2.753906 9.164062 -2.753906 L 6.5 -2.753906 C 5.71875 -2.753906 5.0625 -3.445312 5.0625 -4.222656 L 5.0625 -16.652344 Z M 2.15625 -16.652344 "/></g></g></g><g fill="#00ffff" fill-opacity="1"><g transform="translate(629.425642, 176.92417)"><g><path d="M 2.15625 -23.300781 L 2.15625 0 L 5.0625 0 L 5.0625 -23.300781 Z M 2.15625 -23.300781 "/></g></g></g><g fill="#00ffff" fill-opacity="1"><g transform="translate(636.612947, 176.92417)"><g/></g></g><g fill="#00ffff" fill-opacity="1"><g transform="translate(645.507264, 176.92417)"><g><path d="M 2.15625 -23.300781 L 2.15625 0 L 5.332031 0 L 5.332031 -10.121094 L 14.285156 -10.121094 L 14.285156 -13.175781 L 5.332031 -13.175781 L 5.332031 -20.246094 L 17.609375 -20.246094 L 17.609375 -23.300781 Z M 2.15625 -23.300781 "/></g></g></g><g fill="#00ffff" fill-opacity="1"><g transform="translate(663.26592, 176.92417)"><g><path d="M 2.125 -16.652344 L 2.125 0 L 5.03125 0 L 5.03125 -16.652344 Z M 1.917969 -23.300781 L 1.917969 -20.574219 L 5.269531 -20.574219 L 5.269531 -23.300781 Z M 1.917969 -23.300781 "/></g></g></g><g fill="#00ffff" fill-opacity="1"><g transform="translate(670.453225, 176.92417)"><g><path d="M 2.15625 -23.300781 L 2.15625 0 L 5.0625 0 L 5.0625 -6.949219 L 8.894531 -6.949219 L 12.757812 0 L 15.902344 0 L 11.46875 -8.324219 L 15.902344 -16.652344 L 12.757812 -16.652344 L 8.894531 -9.703125 L 5.0625 -9.703125 L 5.0625 -23.300781 Z M 2.15625 -23.300781 "/></g></g></g><g fill="#00ffff" fill-opacity="1"><g transform="translate(686.624685, 176.92417)"><g><path d="M 2.15625 -16.652344 L 2.15625 0 L 5.0625 0 L 5.0625 -10.722656 C 5.0625 -12.457031 6.5 -13.867188 8.234375 -13.867188 L 10.570312 -13.867188 L 10.570312 -16.652344 L 9.132812 -16.652344 C 7.457031 -16.652344 5.75 -15.632812 5.0625 -13.984375 L 5.0625 -16.652344 Z M 2.15625 -16.652344 "/></g></g></g><g fill="#00ffff" fill-opacity="1"><g transform="translate(697.46555, 176.92417)"><g><path d="M 2.125 -16.652344 L 2.125 0 L 5.03125 0 L 5.03125 -16.652344 Z M 1.917969 -23.300781 L 1.917969 -20.574219 L 5.269531 -20.574219 L 5.269531 -23.300781 Z M 1.917969 -23.300781 "/></g></g></g></svg>